<svg xmlns="http://www.w3.org/2000/svg" width="139.2" height="127.6" viewBox="0 0 139.2 127.6"><g><path d="M-443.5-61.8s10.6-13.4-12.9-19.7c0 0-4.6-1-7.1-10.1 0 0-9.6 21.1 5.7 28.7 0 0 5.6 2.8 9.3 3.1l32.9 58.6 9.1-4.3-37-56.3zM-427.1-95.8l-3.5 17.8v82h7.7v-82l-3.8-18.6"/><path d="M-383.5-91.9s-15.5 24-13.7 32.9l-17.9 22.4-24.1 36.5-8-4.2 24.1-36.5 13-25s4.6 3.4 25.6-26.8l-21.2 32.8s-4.4 2-3.5 5.9c0 0 3.3-.2 4.2-5.6l21.5-32.4zM-166.6 4s-.4-37 28.7-42.8c0 0 23.4 12 21.7 42.8"/><ellipse stroke="#fff" stroke-miterlimit="10" cx="-141.4" cy="-46.4" rx="15" ry="17.4"/><path d="M-124.5 6.7s-.4-37 28.7-42.8c0 0 23.4 12 21.7 42.8"/><ellipse stroke="#fff" stroke-miterlimit="10" cx="-99.2" cy="-43.6" rx="15" ry="17.4"/><path stroke="#fff" stroke-miterlimit="10" d="M-143.7 12.3s-.4-37 28.7-42.8c0 0 23.4 12 21.7 42.8"/><ellipse stroke="#fff" stroke-miterlimit="10" cx="-118.5" cy="-38.1" rx="15" ry="17.4"/><path d="M-684.4 803.1h-55.1c-9.5 0-17.2-7.7-17.2-17.2v-33.8c0-9.5 7.7-17.2 17.2-17.2h55.1c9.5 0 17.2 7.7 17.2 17.2v33.8c0 9.5-7.7 17.2-17.2 17.2z"/><path fill="#fff" d="M-692.2 769.1l-32.4-14.5v28.5z"/><path d="M-696.6-70.6v-26l-65.4-.1v95.6h65.4v-32.1"/><path stroke="#fff" stroke-miterlimit="10" d="M-726.2-65.8l2.9-2.7 13 11.6-2.9 2.8zM-708.8-59.1l4.8-5-12.5-11.1-4.8 5zM-725.6-61.8l-2.3-2.2-20.3 20s-3 11.8-3.6 16.2c0 0 2.7-.3 16.9-4.4l19.9-20-10.6-9.6"/><path d="M-466.9 817.6l40.7-56.2 23-10.4 22.4 10.4v19.8l-35.3 60.3z"/><ellipse fill="#fff" cx="-401.1" cy="765.2" rx="6.1" ry="5.3"/><text transform="matrix(.856 .517 -.517 .856 -443.103 803.528)" fill="#fff" font-family="'MyriadPro-Bold'" font-size="55.001">$</text><path stroke="#000" stroke-width="2" stroke-miterlimit="10" d="M-365.1 719.7c-3.9 15.4-16.4 27-28.8 37-1.5 1.2-3 2.4-4 4s-1.4 3.8-.6 5.5c.9 1.7 3.3 2.6 4.8 1.5" fill="none"/><g fill="#231F20"><path d="M-82.9 731.9h16.2v98h-16.2z"/><path stroke="#fff" stroke-miterlimit="10" d="M-105.9 747.4v16.3h56.9l13.5-8.2-14-8.1zM-42.1 772.9v16.8h-56.9l-13.4-8.4 13.9-8.4z"/></g><path d="M92.4 30.7h-48.1c-3.8 0-7 3.1-7 7v47.8c0 3.8 3.1 7 7 7h48.1c3.8 0 7-3.1 7-7v-47.8c0-3.8-3.1-7-7-7z"/><path fill="#91298D" d="M86.8 34.5h5.4c1.8 0 3.4 1.5 3.4 3.4v5.2c0 1.8-1.5 3.4-3.4 3.4h-5.4c-1.8 0-3.4-1.5-3.4-3.4v-5.2c0-1.8 1.5-3.4 3.4-3.4zM37.2 51.8h62.3v5.1h-62.3z"/><ellipse stroke="#91298D" stroke-width="2" stroke-miterlimit="10" cx="68.4" cy="60.6" rx="15.1" ry="14.7"/><path d="M241.9 39.9s4.6-1 9.4-3.3c0 0-1.7 5.3-5.8 7.8 0 0 3.2-.4 7.8-2 0 0-2.4 3.9-7.2 7.6 0 0 .8 19.8-13.4 33 0 0-21.9 22.2-52 4.8 0 0 11.5 1.7 21.9-6.2 0 0-10.4 0-13.8-10.6 0 0 3.9.6 6.4-.2 0 0-11-2.4-11.7-14.7 0 0 4.1 1.8 6.7 1.9 0 0-10.9-6.8-4.6-20 0 0 12.1 15.2 30.8 15.5 0 0-3.1-12.7 10-17.7.2-.1 8.9-2.7 15.5 4.1z"/></g></svg>