<?xml version="1.0" encoding="utf-8"?>
<!-- Generator: Adobe Illustrator 19.1.0, SVG Export Plug-In . SVG Version: 6.00 Build 0)  -->
<!DOCTYPE svg PUBLIC "-//W3C//DTD SVG 1.1//EN" "http://www.w3.org/Graphics/SVG/1.1/DTD/svg11.dtd">
<svg version="1.1" xmlns="http://www.w3.org/2000/svg" xmlns:xlink="http://www.w3.org/1999/xlink" x="0px" y="0px" width="216px"
	 height="212.5px" viewBox="0 0 216 212.5" enable-background="new 0 0 216 212.5" xml:space="preserve">
<g id="Layer_1" display="none">
</g>
<g id="Layer_2">
	<path d="M121.8,75.4H73.7c-3.8,0-7,3.1-7,7v47.8c0,3.8,3.1,7,7,7h48.1c3.8,0,7-3.1,7-7V82.4C128.8,78.5,125.7,75.4,121.8,75.4z"/>
	<path fill="#FFFFFF" d="M116.2,79.2h5.4c1.8,0,3.4,1.5,3.4,3.4v5.2c0,1.8-1.5,3.4-3.4,3.4h-5.4c-1.8,0-3.4-1.5-3.4-3.4v-5.2
		C112.9,80.7,114.4,79.2,116.2,79.2z"/>
	<rect x="66.7" y="96.4" fill="#FFFFFF" width="62.3" height="5.1"/>
	<ellipse stroke="#FFFFFF" stroke-width="2" stroke-miterlimit="10" cx="97.8" cy="105.2" rx="15.1" ry="14.7"/>
</g>
</svg>
