<?xml version="1.0" encoding="utf-8"?>
<!-- Generator: Adobe Illustrator 19.1.0, SVG Export Plug-In . SVG Version: 6.00 Build 0)  -->
<!DOCTYPE svg PUBLIC "-//W3C//DTD SVG 1.1//EN" "http://www.w3.org/Graphics/SVG/1.1/DTD/svg11.dtd">
<svg version="1.1" xmlns="http://www.w3.org/2000/svg" xmlns:xlink="http://www.w3.org/1999/xlink" x="0px" y="0px" width="208.8px"
	 height="196.5px" viewBox="0 0 208.8 196.5" enable-background="new 0 0 208.8 196.5" xml:space="preserve">
<g id="Layer_1" display="none">
</g>
<g id="Layer_2">
	<g>
		<path d="M129.2,64.6c0,0,4.6-1,9.4-3.3c0,0-1.7,5.3-5.8,7.8c0,0,3.2-0.4,7.8-2c0,0-2.4,3.9-7.2,7.6c0,0,0.8,19.8-13.4,33
			c0,0-21.9,22.2-52,4.8c0,0,11.5,1.7,21.9-6.2c0,0-10.4,0-13.8-10.6c0,0,3.9,0.6,6.4-0.2c0,0-11-2.4-11.7-14.7c0,0,4.1,1.8,6.7,1.9
			c0,0-10.9-6.8-4.6-20c0,0,12.1,15.2,30.8,15.5c0,0-3.1-12.7,10-17.7C113.9,60.5,122.7,57.8,129.2,64.6z"/>
	</g>
</g>
</svg>
